<svg viewBox="0 0 32 24" fill="none" xmlns="http://www.w3.org/2000/svg">
<path d="M19.5352 1.53516C20.0428 1.02748 20.8654 1.02748 21.373 1.53516L30.9189 11.0811C31.4266 11.5887 31.4266 12.4113 30.9189 12.9189L21.373 22.4648C20.8654 22.9725 20.0428 22.9725 19.5352 22.4648C19.0275 21.9572 19.0275 21.1346 19.5352 20.627L26.5205 13.6416L26.8613 13.2998L0.999999 13.2998C0.558209 13.2998 0.200256 12.9418 0.200194 12.5L0.200194 11.5C0.200194 11.0582 0.558171 10.7002 0.999999 10.7002L26.8613 10.7002L26.5205 10.3584L19.5352 3.37305C19.0275 2.86539 19.0275 2.04284 19.5352 1.53516Z" fill="black" stroke="white" stroke-width="0.4"/>
</svg>
