<svg width="52" height="35" viewBox="0 0 52 35" fill="none" xmlns="http://www.w3.org/2000/svg">
<rect x="0.5" y="0.5" width="51" height="34" rx="2.5" fill="white"/>
<path d="M35.1597 7H16.7541C15.7853 7 15 7.74964 15 8.67437V26.2433C15 27.168 15.7853 27.9177 16.7541 27.9177H35.1597C36.1284 27.9177 36.9138 27.168 36.9138 26.2433V8.67437C36.9138 7.74964 36.1284 7 35.1597 7Z" fill="#0C54A0"/>
<path d="M35.3867 17.4589C35.3867 22.4303 31.1648 26.4602 25.9567 26.4602C20.7487 26.4602 16.5269 22.4303 16.5269 17.4589C16.5269 12.4877 20.7487 8.45764 25.9567 8.45764C31.1648 8.45764 35.3867 12.4877 35.3867 17.4589Z" fill="#FFF01E"/>
<path d="M25.2215 15.864H23.2642L20.9824 18.0936V13.5677H19.2305V21.3246H20.9824V18.8781L23.1775 21.3246H25.3945L22.6801 18.331L25.2215 15.864Z" fill="#0C54A0"/>
<path d="M26.5626 15.358C26.2957 15.358 26.0687 15.2688 25.8813 15.0897C25.6937 14.9109 25.6001 14.694 25.6001 14.4395C25.6001 14.1848 25.6937 13.9682 25.8813 13.7891C26.0687 13.6103 26.2957 13.5208 26.5626 13.5208C26.8292 13.5208 27.0562 13.6103 27.2438 13.7891C27.4312 13.9682 27.5249 14.1848 27.5249 14.4395C27.5249 14.694 27.4312 14.9109 27.2438 15.0897C27.0562 15.2688 26.8292 15.358 26.5626 15.358Z" fill="#F52D0E"/>
<path d="M27.4384 21.3246H25.6865V15.864H27.4384V21.3246Z" fill="#0C54A0"/>
<path d="M32.6833 17.2575V15.8639H31.0828V13.5677H29.3309V15.8639H28.1738V17.2575H29.3309V19.6627C29.3309 20.234 29.5056 20.6658 29.8554 20.9582C30.2051 21.2508 30.7223 21.3969 31.4073 21.3969C31.5729 21.3969 31.7784 21.3814 32.0237 21.3504C32.2687 21.3195 32.4706 21.2799 32.6293 21.2317V19.8794C32.4849 19.9208 32.3516 19.95 32.2291 19.9672C32.1064 19.9844 31.9767 19.993 31.8398 19.993C31.5587 19.993 31.3623 19.9432 31.2504 19.8433C31.1386 19.7436 31.0828 19.5733 31.0828 19.3323V17.2575H32.6833H32.6833Z" fill="#0C54A0"/>
</svg>
