<svg width="125" height="52" viewBox="0 0 573 234" fill="none" xmlns="http://www.w3.org/2000/svg">
<rect x="3" y="8" width="25" height="160" fill="#353532"/>
<rect x="122" y="8" width="25" height="160" fill="#353532"/>
<rect x="353" y="8" width="25" height="160" transform="rotate(90 353 8)" fill="#353532"/>
<rect x="353" y="75" width="25" height="160" transform="rotate(90 353 75)" fill="#353532"/>
<rect x="353" y="146" width="25" height="160" transform="rotate(90 353 146)" fill="#353532"/>
<path d="M52.5 49V83.5L97.5 128.5V94L52.5 49Z" fill="#353532"/>
<path d="M403 83C403 72.1003 405.16 61.3073 409.356 51.2373C413.552 41.1672 419.703 32.0174 427.457 24.3101C435.21 16.6029 444.415 10.4891 454.546 6.318C464.677 2.14686 475.535 6.52392e-06 486.5 7.95899e-06C497.465 9.39405e-06 508.323 2.14687 518.454 6.31801C528.585 10.4892 537.79 16.6029 545.543 24.3102C553.297 32.0174 559.448 41.1673 563.644 51.2373C567.84 61.3073 570 72.1003 570 83L544.055 83C544.055 75.487 542.567 68.0476 539.674 61.1064C536.782 54.1653 532.542 47.8585 527.198 42.546C521.853 37.2334 515.508 33.0193 508.525 30.1442C501.543 27.2691 494.058 25.7893 486.5 25.7893C478.942 25.7893 471.457 27.2691 464.475 30.1442C457.492 33.0193 451.147 37.2334 445.802 42.5459C440.458 47.8584 436.218 54.1653 433.326 61.1064C430.433 68.0475 428.945 75.487 428.945 83L403 83Z" fill="#353532"/>
<path d="M570 94C570 104.9 567.84 115.693 563.644 125.763C559.448 135.833 553.297 144.983 545.543 152.69C537.79 160.397 528.585 166.511 518.454 170.682C508.323 174.853 497.465 177 486.5 177C475.535 177 464.677 174.853 454.546 170.682C444.415 166.511 435.21 160.397 427.457 152.69C419.703 144.983 413.552 135.833 409.356 125.763C405.16 115.693 403 104.9 403 94L428.945 94C428.945 101.513 430.433 108.952 433.326 115.894C436.218 122.835 440.458 129.142 445.802 134.454C451.147 139.767 457.492 143.981 464.475 146.856C471.457 149.731 478.942 151.211 486.5 151.211C494.058 151.211 501.543 149.731 508.525 146.856C515.508 143.981 521.853 139.767 527.198 134.454C532.542 129.142 536.782 122.835 539.674 115.894C542.567 108.952 544.055 101.513 544.055 94H570Z" fill="#353532"/>
<path d="M3.43466 196H7.53409L17.1733 219.544H17.5057L27.1449 196H31.2443V224.363H28.0312V202.814H27.7543L18.8906 224.363H15.7884L6.92472 202.814H6.64773V224.363H3.43466V196ZM48.6609 224.363V196H65.7788V199.047H52.0956V208.63H64.8925V211.677H52.0956V221.316H66.0004V224.363H48.6609ZM82.4995 224.363V196H99.6174V199.047H85.9342V207.91H93.1359C95.1672 207.91 96.8799 208.243 98.274 208.907C99.6775 209.572 100.739 210.509 101.459 211.719C102.189 212.928 102.554 214.355 102.554 215.998C102.554 217.642 102.189 219.091 101.459 220.347C100.739 221.603 99.6775 222.586 98.274 223.297C96.8799 224.008 95.1672 224.363 93.1359 224.363H82.4995ZM85.9342 221.372H93.1359C94.4285 221.372 95.5226 221.113 96.4182 220.596C97.323 220.07 98.0063 219.396 98.4679 218.574C98.9388 217.743 99.1743 216.866 99.1743 215.943C99.1743 214.586 98.6526 213.418 97.6093 212.439C96.5659 211.451 95.0748 210.957 93.1359 210.957H85.9342V221.372ZM118.738 224.363V196H135.855V199.047H122.172V208.63H134.969V211.677H122.172V221.316H136.077V224.363H118.738ZM150.139 224.363V221.206H150.97C152.151 221.206 153.07 220.827 153.726 220.07C154.381 219.313 154.852 218.089 155.138 216.4C155.434 214.71 155.632 212.471 155.734 209.683L156.232 196H173.516V224.363H170.082V199.047H159.501L159.058 210.348C158.947 213.321 158.675 215.85 158.241 217.937C157.807 220.024 157.045 221.616 155.955 222.715C154.866 223.814 153.278 224.363 151.191 224.363H150.139ZM193.457 207.91H201.545C203.576 207.91 205.289 208.243 206.683 208.907C208.087 209.572 209.149 210.509 209.869 211.719C210.598 212.928 210.963 214.355 210.963 215.998C210.963 217.642 210.598 219.091 209.869 220.347C209.149 221.603 208.087 222.586 206.683 223.297C205.289 224.008 203.576 224.363 201.545 224.363H190.909V196H194.344V221.372H201.545C202.838 221.372 203.932 221.113 204.828 220.596C205.732 220.07 206.416 219.396 206.877 218.574C207.348 217.743 207.584 216.866 207.584 215.943C207.584 214.586 207.062 213.418 206.019 212.439C204.975 211.451 203.484 210.957 201.545 210.957H193.457V207.91ZM245.98 231.233V221.316H247.808C248.436 220.744 249.026 219.936 249.58 218.893C250.144 217.84 250.619 216.437 251.007 214.683C251.404 212.919 251.667 210.68 251.796 207.966L252.406 196H269.247V221.316H272.515V231.177H269.247V224.363H249.248V231.233H245.98ZM251.907 221.316H265.978V199.047H255.508L255.065 207.966C254.954 210.034 254.76 211.908 254.483 213.588C254.206 215.26 253.851 216.741 253.417 218.034C252.983 219.317 252.48 220.412 251.907 221.316ZM285.798 224.363V221.206H286.629C287.81 221.206 288.729 220.827 289.385 220.07C290.04 219.313 290.511 218.089 290.797 216.4C291.093 214.71 291.291 212.471 291.393 209.683L291.891 196H309.176V224.363H305.741V199.047H295.16L294.717 210.348C294.606 213.321 294.334 215.85 293.9 217.937C293.466 220.024 292.704 221.616 291.614 222.715C290.525 223.814 288.937 224.363 286.85 224.363H285.798ZM345.846 224.363H342.412V199.047H336.373C334.841 199.047 333.608 199.282 332.676 199.753C331.743 200.214 331.064 200.87 330.64 201.719C330.215 202.569 330.003 203.561 330.003 204.697C330.003 205.833 330.21 206.811 330.626 207.633C331.051 208.446 331.725 209.074 332.648 209.517C333.58 209.96 334.804 210.181 336.318 210.181H343.963V213.284H336.207C334.01 213.284 332.205 212.919 330.792 212.19C329.379 211.451 328.331 210.435 327.648 209.143C326.965 207.85 326.623 206.368 326.623 204.697C326.623 203.026 326.965 201.535 327.648 200.224C328.331 198.913 329.384 197.883 330.806 197.135C332.228 196.378 334.047 196 336.263 196H345.846V224.363ZM332.495 211.622H336.373L329.504 224.363H325.515L332.495 211.622ZM401.547 196V224.363H398.113V196H401.547ZM382.38 224.363L391.576 209.572L383.155 196H387.31L394.678 208.575H405.037L412.405 196H416.56L408.084 209.627L417.28 224.363H413.347L405.647 211.788H394.013L386.257 224.363H382.38ZM432.311 196H435.691V218.325H435.967L451.479 196H454.803V224.363H451.368V202.093H451.091L435.635 224.363H432.311V196ZM481.291 224.751C479.463 224.751 477.833 224.437 476.402 223.809C474.98 223.181 473.849 222.309 473.009 221.192C472.178 220.065 471.725 218.759 471.652 217.272H475.142C475.215 218.186 475.529 218.976 476.083 219.641C476.637 220.296 477.362 220.804 478.258 221.164C479.153 221.524 480.146 221.704 481.235 221.704C482.454 221.704 483.534 221.492 484.476 221.067C485.418 220.642 486.156 220.051 486.692 219.294C487.228 218.537 487.495 217.66 487.495 216.663C487.495 215.62 487.237 214.701 486.72 213.907C486.203 213.104 485.446 212.476 484.448 212.023C483.451 211.571 482.232 211.345 480.792 211.345H478.521V208.298H480.792C481.919 208.298 482.906 208.095 483.756 207.689C484.615 207.282 485.284 206.71 485.764 205.971C486.253 205.233 486.498 204.365 486.498 203.368C486.498 202.407 486.286 201.572 485.861 200.861C485.436 200.15 484.836 199.596 484.061 199.199C483.294 198.802 482.389 198.603 481.346 198.603C480.367 198.603 479.444 198.783 478.576 199.143C477.718 199.494 477.016 200.007 476.471 200.681C475.926 201.346 475.631 202.149 475.585 203.091H472.261C472.316 201.604 472.764 200.302 473.604 199.185C474.444 198.059 475.543 197.181 476.9 196.554C478.267 195.926 479.767 195.612 481.402 195.612C483.156 195.612 484.661 195.967 485.916 196.678C487.172 197.38 488.137 198.308 488.811 199.462C489.485 200.616 489.822 201.863 489.822 203.201C489.822 204.799 489.402 206.161 488.562 207.287C487.731 208.413 486.6 209.194 485.169 209.627V209.849C486.96 210.145 488.359 210.906 489.365 212.134C490.371 213.353 490.875 214.863 490.875 216.663C490.875 218.205 490.454 219.59 489.614 220.818C488.783 222.037 487.648 222.997 486.207 223.699C484.767 224.4 483.128 224.751 481.291 224.751ZM507.568 224.363V196H511.002V208.63H526.126V196H529.56V224.363H526.126V211.677H511.002V224.363H507.568ZM546.967 196H550.346V218.325H550.623L566.134 196H569.458V224.363H566.024V202.093H565.747L550.291 224.363H546.967V196Z" fill="black"/>
</svg>
