<svg width="52" height="35" viewBox="0 0 52 35" fill="none" xmlns="http://www.w3.org/2000/svg">
<rect x="0.5" y="0.5" width="51" height="34" rx="2.5" fill="white"/>
<g clip-path="url(#clip0_2518_821)">
<path fill-rule="evenodd" clip-rule="evenodd" d="M40.6548 13V19.7032H41.8093V17.7079L43.5008 19.7032H45.0001L42.9076 17.2297L44.8557 15.0612H43.3887L41.8093 16.8504V13H40.6548Z" fill="#EF3124"/>
<path fill-rule="evenodd" clip-rule="evenodd" d="M38.2257 14.8634C37.5603 14.8634 37.1354 15.2262 36.927 15.5725V15.0612H35.7725V19.7032H36.927V16.8669C36.927 16.2238 37.2316 15.927 37.7608 15.927C38.2738 15.927 38.5705 16.2238 38.5705 16.8669V19.7032H39.7249V16.8092C39.7249 15.5395 39.2038 14.8634 38.2257 14.8634Z" fill="#EF3124"/>
<path fill-rule="evenodd" clip-rule="evenodd" d="M17.4533 14.6737C17.4533 14.2203 17.6378 14.0142 18.0627 14.0142H19.3614V13.0001H17.7296C16.7944 13.0016 16.2989 13.5045 16.2989 14.4511V15.3499H15.2646V16.4217H16.2989V19.7032H17.4533V16.4217H18.5838V15.3499H17.4533V14.6737Z" fill="#EF3124"/>
<path d="M14.6632 13.0001H13.5088V19.7033H14.6632V13.0001Z" fill="#EF3124"/>
<path d="M13.1709 21.6813H7V23.0001H13.1709V21.6813Z" fill="#EF3124"/>
<path fill-rule="evenodd" clip-rule="evenodd" d="M9.20407 17.2554L10.0696 14.6097H10.1017L10.9191 17.2554H9.20407ZM11.2073 14.1213C11.0314 13.5817 10.8286 13.1555 10.1338 13.1555C9.43885 13.1555 9.223 13.58 9.03787 14.1213L7.12842 19.7032H8.39467L8.83542 18.3763H11.2717L11.6805 19.7032H13.0268L11.2073 14.1213Z" fill="#EF3124"/>
<path fill-rule="evenodd" clip-rule="evenodd" d="M33.6076 17.9717C33.6076 18.5077 33.2388 18.8127 32.7578 18.8127C32.3409 18.8127 32.0122 18.6561 32.0122 18.1944C32.0122 17.7409 32.373 17.6667 32.6856 17.6667H33.6076V17.9717ZM34.762 18.2768V16.7185C34.762 15.5807 34.0566 14.8634 32.87 14.8634C31.6434 14.8634 30.994 15.6219 30.9379 16.4134H32.1084C32.1484 16.2403 32.3249 15.9435 32.87 15.9435C33.319 15.9435 33.6076 16.1579 33.6076 16.7185H32.4612C31.4349 16.7185 30.8257 17.2709 30.8257 18.1944C30.8257 19.1591 31.4921 19.8186 32.4531 19.8186C33.1577 19.8186 33.549 19.4762 33.7198 19.2167C33.8721 19.5301 34.2088 19.7032 34.6498 19.7032H35.0506V18.6314C34.8422 18.6314 34.762 18.5324 34.762 18.2768Z" fill="#EF3124"/>
<path fill-rule="evenodd" clip-rule="evenodd" d="M21.6301 17.9717C21.6301 18.5077 21.2613 18.8127 20.7803 18.8127C20.3634 18.8127 20.0347 18.6561 20.0347 18.1944C20.0347 17.7409 20.3954 17.6667 20.7081 17.6667H21.6301V17.9717ZM22.7846 18.2768V16.7185C22.7846 15.5807 22.079 14.8634 20.8925 14.8634C19.6659 14.8634 19.0165 15.6219 18.9604 16.4134H20.1309C20.171 16.2403 20.3474 15.9435 20.8925 15.9435C21.3415 15.9435 21.6301 16.1579 21.6301 16.7185H20.4836C19.4575 16.7185 18.8481 17.2709 18.8481 18.1944C18.8481 19.1591 19.5146 19.8186 20.4756 19.8186C21.1802 19.8186 21.5715 19.4762 21.7423 19.2167C21.8947 19.5301 22.2314 19.7032 22.6723 19.7032H23.0732V18.6314C22.8647 18.6314 22.7846 18.5324 22.7846 18.2768Z" fill="#EF3124"/>
<path fill-rule="evenodd" clip-rule="evenodd" d="M27.9639 18.5736H26.4006V16.9246H27.9639C28.6293 16.9246 28.966 17.205 28.966 17.7491C28.966 18.2933 28.6212 18.5736 27.9639 18.5736ZM26.4006 14.3604H28.0682C28.5652 14.3604 28.8298 14.5996 28.8298 15.086C28.8298 15.556 28.5652 15.8116 28.0762 15.8116H26.4006V14.3604ZM29.2467 16.298C29.6796 16.1001 30.0724 15.6384 30.0724 14.9871C30.0724 13.8905 29.3749 13.2309 28.2044 13.2309H25.2061V19.7032H28.1002C29.4471 19.7032 30.2087 19.0189 30.2087 17.8234C30.2087 16.9741 29.7356 16.4877 29.2467 16.298Z" fill="#EF3124"/>
</g>
<defs>
<clipPath id="clip0_2518_821">
<rect width="38" height="10" fill="white" transform="translate(7 13)"/>
</clipPath>
</defs>
</svg>
